<mxfile host="drawio-plugin" modified="2023-09-12T13:15:22.670Z" agent="5.0 (Macintosh; Intel Mac OS X 10_15_7) AppleWebKit/537.36 (KHTML, like Gecko) Chrome/111.0.0.0 Safari/537.36" etag="W5QDw38ZzbCP8MJ9FUWA" version="20.5.3" type="embed"><diagram name="Page-1" id="2YBvvXClWsGukQMizWep"><mxGraphModel dx="912" dy="507" grid="1" gridSize="10" guides="1" tooltips="1" connect="1" arrows="1" fold="1" page="1" pageScale="1" pageWidth="850" pageHeight="1100" math="0" shadow="0"><root><mxCell id="0"/><mxCell id="1" parent="0"/><mxCell id="4YaebFQJemDag6wVgupI-9" value="" style="rounded=0;whiteSpace=wrap;html=1;" parent="1" vertex="1"><mxGeometry x="150" y="180" width="160" height="150" as="geometry"/></mxCell><mxCell id="4YaebFQJemDag6wVgupI-2" value="String Pool" style="rounded=0;whiteSpace=wrap;html=1;" parent="1" vertex="1"><mxGeometry x="460" y="170" width="210" height="70" as="geometry"/></mxCell><mxCell id="4YaebFQJemDag6wVgupI-3" value="" style="rounded=0;whiteSpace=wrap;html=1;" parent="1" vertex="1"><mxGeometry x="460" y="240" width="210" height="320" as="geometry"/></mxCell><mxCell id="4YaebFQJemDag6wVgupI-6" value="input" style="rounded=0;whiteSpace=wrap;html=1;" parent="1" vertex="1"><mxGeometry x="180" y="200" width="100" height="40" as="geometry"/></mxCell><mxCell id="4YaebFQJemDag6wVgupI-7" value="&quot;input value&quot;" style="rounded=0;whiteSpace=wrap;html=1;" parent="1" vertex="1"><mxGeometry x="180" y="240" width="100" height="60" as="geometry"/></mxCell><mxCell id="4YaebFQJemDag6wVgupI-8" value="" style="endArrow=classic;html=1;rounded=0;entryX=0;entryY=0;entryDx=0;entryDy=0;exitX=1;exitY=0;exitDx=0;exitDy=0;" parent="1" source="4YaebFQJemDag6wVgupI-7" target="4YaebFQJemDag6wVgupI-3" edge="1"><mxGeometry width="50" height="50" relative="1" as="geometry"><mxPoint x="425" y="240" as="sourcePoint"/><mxPoint x="475" y="190" as="targetPoint"/></mxGeometry></mxCell><mxCell id="4YaebFQJemDag6wVgupI-10" value="Heap Memory" style="rounded=0;whiteSpace=wrap;html=1;" parent="1" vertex="1"><mxGeometry x="150" y="140" width="160" height="40" as="geometry"/></mxCell><mxCell id="4YaebFQJemDag6wVgupI-11" value="String" style="rounded=0;whiteSpace=wrap;html=1;" parent="1" vertex="1"><mxGeometry x="497.5" y="255" width="132.5" height="30" as="geometry"/></mxCell><mxCell id="4YaebFQJemDag6wVgupI-12" value="&lt;div style=&quot;background-color:#1e1f22;color:#bcbec4&quot;&gt;&lt;pre style=&quot;font-family:'JetBrains Mono',monospace;font-size:9.8pt;&quot;&gt;str.substring(str.length() - 1)&lt;/pre&gt;&lt;/div&gt;" style="rounded=0;whiteSpace=wrap;html=1;" parent="1" vertex="1"><mxGeometry x="497.5" y="285" width="132.5" height="45" as="geometry"/></mxCell><mxCell id="4YaebFQJemDag6wVgupI-14" value="&lt;div style=&quot;background-color:#1e1f22;color:#bcbec4&quot;&gt;&lt;pre style=&quot;font-family:'JetBrains Mono',monospace;font-size:9.8pt;&quot;&gt;&lt;div&gt;&lt;pre style=&quot;font-family:'JetBrains Mono',monospace;font-size:9.8pt;&quot;&gt;str.substring(1, str.length() - &lt;span style=&quot;color:#2aacb8;&quot;&gt;1&lt;/span&gt;)&lt;/pre&gt;&lt;/div&gt;&lt;/pre&gt;&lt;/div&gt;" style="rounded=0;whiteSpace=wrap;html=1;" parent="1" vertex="1"><mxGeometry x="497.5" y="330" width="132.5" height="45" as="geometry"/></mxCell><mxCell id="4YaebFQJemDag6wVgupI-15" value="&lt;div style=&quot;background-color:#1e1f22;color:#bcbec4&quot;&gt;&lt;pre style=&quot;font-family:'JetBrains Mono',monospace;font-size:9.8pt;&quot;&gt;&lt;pre style=&quot;font-family:'JetBrains Mono',monospace;font-size:9.8pt;&quot;&gt;&lt;pre style=&quot;font-family:'JetBrains Mono',monospace;font-size:9.8pt;&quot;&gt;&lt;div&gt;&lt;pre style=&quot;font-family:'JetBrains Mono',monospace;font-size:9.8pt;&quot;&gt;str.substring(0, &lt;span style=&quot;color:#2aacb8;&quot;&gt;1&lt;/span&gt;)&lt;/pre&gt;&lt;/div&gt;&lt;/pre&gt;&lt;/pre&gt;&lt;/pre&gt;&lt;/div&gt;" style="rounded=0;whiteSpace=wrap;html=1;" parent="1" vertex="1"><mxGeometry x="497.5" y="377.5" width="132.5" height="45" as="geometry"/></mxCell><mxCell id="4YaebFQJemDag6wVgupI-16" value="Stack Memory" style="rounded=0;whiteSpace=wrap;html=1;" parent="1" vertex="1"><mxGeometry x="150" y="362.5" width="160" height="47.5" as="geometry"/></mxCell><mxCell id="4YaebFQJemDag6wVgupI-17" value="" style="rounded=0;whiteSpace=wrap;html=1;" parent="1" vertex="1"><mxGeometry x="150" y="410" width="160" height="270" as="geometry"/></mxCell><mxCell id="4YaebFQJemDag6wVgupI-18" value="String" style="rounded=0;whiteSpace=wrap;html=1;" parent="1" vertex="1"><mxGeometry x="180" y="430" width="100" height="30" as="geometry"/></mxCell><mxCell id="4YaebFQJemDag6wVgupI-19" value="" style="rounded=0;whiteSpace=wrap;html=1;" parent="1" vertex="1"><mxGeometry x="180" y="460" width="100" height="50" as="geometry"/></mxCell><mxCell id="4YaebFQJemDag6wVgupI-20" value="" style="endArrow=classic;html=1;rounded=0;" parent="1" target="4YaebFQJemDag6wVgupI-14" edge="1"><mxGeometry width="50" height="50" relative="1" as="geometry"><mxPoint x="280" y="480" as="sourcePoint"/><mxPoint x="330" y="430" as="targetPoint"/></mxGeometry></mxCell><mxCell id="4YaebFQJemDag6wVgupI-22" value="String" style="rounded=0;whiteSpace=wrap;html=1;" parent="1" vertex="1"><mxGeometry x="180" y="540" width="100" height="30" as="geometry"/></mxCell><mxCell id="4YaebFQJemDag6wVgupI-23" value="" style="rounded=0;whiteSpace=wrap;html=1;" parent="1" vertex="1"><mxGeometry x="180" y="570" width="100" height="50" as="geometry"/></mxCell><mxCell id="4YaebFQJemDag6wVgupI-24" value="" style="endArrow=classic;html=1;rounded=0;exitX=0;exitY=0.5;exitDx=0;exitDy=0;entryX=0;entryY=0.5;entryDx=0;entryDy=0;" parent="1" source="4YaebFQJemDag6wVgupI-23" target="4YaebFQJemDag6wVgupI-7" edge="1"><mxGeometry width="50" height="50" relative="1" as="geometry"><mxPoint x="140" y="580" as="sourcePoint"/><mxPoint x="120" y="270" as="targetPoint"/><Array as="points"><mxPoint x="120" y="595"/><mxPoint x="120" y="270"/></Array></mxGeometry></mxCell><mxCell id="2" value="&lt;meta charset=&quot;utf-8&quot;&gt;&lt;span style=&quot;color: rgb(240, 240, 240); font-family: Helvetica; font-size: 12px; font-style: normal; font-variant-ligatures: normal; font-variant-caps: normal; font-weight: 400; letter-spacing: normal; orphans: 2; text-align: center; text-indent: 0px; text-transform: none; widows: 2; word-spacing: 0px; -webkit-text-stroke-width: 0px; background-color: rgb(42, 42, 42); text-decoration-thickness: initial; text-decoration-style: initial; text-decoration-color: initial; float: none; display: inline !important;&quot;&gt;afterstr&lt;/span&gt;" style="rounded=0;whiteSpace=wrap;html=1;" vertex="1" parent="1"><mxGeometry x="50" y="470" width="60" height="40" as="geometry"/></mxCell><mxCell id="3" value="" style="endArrow=classic;html=1;rounded=0;entryX=0;entryY=0.5;entryDx=0;entryDy=0;" edge="1" parent="1" target="4YaebFQJemDag6wVgupI-19"><mxGeometry width="50" height="50" relative="1" as="geometry"><mxPoint x="110" y="490" as="sourcePoint"/><mxPoint x="160" y="440" as="targetPoint"/></mxGeometry></mxCell><mxCell id="4" value="&lt;span style=&quot;color: rgb(240, 240, 240); font-family: Helvetica; font-size: 12px; font-style: normal; font-variant-ligatures: normal; font-variant-caps: normal; font-weight: 400; letter-spacing: normal; orphans: 2; text-align: center; text-indent: 0px; text-transform: none; widows: 2; word-spacing: 0px; -webkit-text-stroke-width: 0px; background-color: rgb(42, 42, 42); text-decoration-thickness: initial; text-decoration-style: initial; text-decoration-color: initial; float: none; display: inline !important;&quot;&gt;str&lt;/span&gt;" style="rounded=0;whiteSpace=wrap;html=1;" vertex="1" parent="1"><mxGeometry x="50" y="550" width="60" height="40" as="geometry"/></mxCell><mxCell id="5" value="" style="endArrow=classic;html=1;rounded=0;entryX=0;entryY=0.25;entryDx=0;entryDy=0;" edge="1" parent="1" target="4YaebFQJemDag6wVgupI-23"><mxGeometry width="50" height="50" relative="1" as="geometry"><mxPoint x="110" y="570" as="sourcePoint"/><mxPoint x="160" y="520" as="targetPoint"/></mxGeometry></mxCell></root></mxGraphModel></diagram></mxfile>